<svg xmlns="http://www.w3.org/2000/svg" width="39" height="41" viewBox="0 0 39 41">
  <g id="application" transform="translate(0 -0.493)">
    <g id="Subtraction_2" data-name="Subtraction 2" transform="translate(0 0.493)" fill="none">
      <path d="M5.917,21H0V0H19.826V6.267c.061,0,.118,0,.174,0A3.865,3.865,0,0,1,22.828,7.5a4.416,4.416,0,0,1,0,5.992A3.865,3.865,0,0,1,20,14.737c-.058,0-.115,0-.174,0V21H13.909c0-.059,0-.12,0-.184a4.128,4.128,0,0,0-4-4.237,4.128,4.128,0,0,0-4,4.237c0,.061,0,.123,0,.184Z" stroke="none"/>
      <path d="M 4.973921298980713 19.99993896484375 C 5.349064826965332 17.49835014343262 7.421247005462646 15.5787296295166 9.913419723510742 15.5787296295166 C 12.4052619934082 15.5787296295166 14.47721385955811 17.49821853637695 14.85253620147705 19.99956130981445 L 18.82621002197266 19.99931335449219 L 18.82621002197266 14.73252964019775 L 18.82621002197266 13.68579006195068 L 19.87186050415039 13.73357009887695 C 19.91497039794922 13.73554039001465 19.95685958862305 13.73649978637695 19.99994087219238 13.73649978637695 C 20.79039001464844 13.73649978637695 21.53667068481445 13.40717029571533 22.10129928588867 12.80918025970459 C 22.68083000183105 12.19538974761963 23 11.37530040740967 23 10.49997043609619 C 23 9.624600410461426 22.68082046508789 8.804439544677734 22.10125923156738 8.190569877624512 C 21.53661918640137 7.592490196228027 20.79035949707031 7.263120174407959 19.99994087219238 7.263120174407959 C 19.95718002319336 7.263120174407959 19.91518020629883 7.264080047607422 19.87153053283691 7.266059875488281 L 18.82621002197266 7.313479900360107 L 18.82621002197266 6.26708984375 L 18.82621002197266 1.000009536743164 L 1 1.000000476837158 L 1 19.99968338012695 L 4.973921298980713 19.99993896484375 M 5.917089939117432 21 L 5.916729927062988 21 L -1.77635683940025e-15 20.99962043762207 L -1.77635683940025e-15 0 L 19.82621002197266 9.999999747378752e-06 L 19.82621002197266 6.26708984375 C 19.88771057128906 6.264299869537354 19.94465065002441 6.263120174407959 19.99994087219238 6.263120174407959 C 21.06838989257813 6.263120174407959 22.07288932800293 6.703829765319824 22.82839965820313 7.504079818725586 C 23.58391952514648 8.304320335388184 24 9.368289947509766 24 10.49997043609619 C 24 11.63164043426514 23.58391952514648 12.69554042816162 22.82839965820313 13.4957103729248 C 22.07290077209473 14.29584980010986 21.06839942932129 14.73649978637695 19.99994087219238 14.73649978637695 C 19.94146919250488 14.73649978637695 19.88463973999023 14.73519992828369 19.82621002197266 14.73252964019775 L 19.82621002197266 20.9992504119873 L 13.9094295501709 20.99962043762207 C 13.91178035736084 20.94101905822754 13.9131498336792 20.87923049926758 13.9131498336792 20.81558990478516 C 13.9131498336792 18.47937965393066 12.11888027191162 16.5787296295166 9.913419723510742 16.5787296295166 C 7.707779884338379 16.5787296295166 5.913360118865967 18.47937965393066 5.913360118865967 20.81558990478516 C 5.913360118865967 20.87659072875977 5.914619922637939 20.93849945068359 5.917079925537109 20.99962043762207 L 5.917089939117432 21 Z" stroke="none" fill="#fafafa"/>
    </g>
    <g id="Subtraction_3" data-name="Subtraction 3" transform="translate(39 0.493) rotate(90)" fill="none">
      <path d="M5.917,21H0V0H19.826V6.267c.061,0,.118,0,.174,0A3.865,3.865,0,0,1,22.828,7.5a4.416,4.416,0,0,1,0,5.992A3.865,3.865,0,0,1,20,14.737c-.058,0-.115,0-.174,0V21H13.909c0-.059,0-.12,0-.184a4.128,4.128,0,0,0-4-4.237,4.128,4.128,0,0,0-4,4.237c0,.061,0,.123,0,.184Z" stroke="none"/>
      <path d="M 4.973921298980713 19.99993896484375 C 5.349064826965332 17.49835014343262 7.421247005462646 15.5787296295166 9.913419723510742 15.5787296295166 C 12.4052619934082 15.5787296295166 14.47721385955811 17.49821853637695 14.85253620147705 19.99956130981445 L 18.82621002197266 19.99931335449219 L 18.82621002197266 14.73252964019775 L 18.82621002197266 13.68579006195068 L 19.87186050415039 13.73357009887695 C 19.91497039794922 13.73554039001465 19.95685958862305 13.73649978637695 19.99994087219238 13.73649978637695 C 20.79039001464844 13.73649978637695 21.53667068481445 13.40717029571533 22.10129928588867 12.80918025970459 C 22.68083000183105 12.19538974761963 23 11.37530040740967 23 10.49997043609619 C 23 9.624600410461426 22.68082046508789 8.804439544677734 22.10125923156738 8.190569877624512 C 21.53661918640137 7.592490196228027 20.79035949707031 7.263120174407959 19.99994087219238 7.263120174407959 C 19.95718002319336 7.263120174407959 19.91518020629883 7.264080047607422 19.87153053283691 7.266059875488281 L 18.82621002197266 7.313479900360107 L 18.82621002197266 6.26708984375 L 18.82621002197266 1.000009536743164 L 1 1.000000476837158 L 1 19.99968338012695 L 4.973921298980713 19.99993896484375 M 5.917089939117432 21 L 5.916729927062988 21 L -1.77635683940025e-15 20.99962043762207 L -1.77635683940025e-15 0 L 19.82621002197266 9.999999747378752e-06 L 19.82621002197266 6.26708984375 C 19.88771057128906 6.264299869537354 19.94465065002441 6.263120174407959 19.99994087219238 6.263120174407959 C 21.06838989257813 6.263120174407959 22.07288932800293 6.703829765319824 22.82839965820313 7.504079818725586 C 23.58391952514648 8.304320335388184 24 9.368289947509766 24 10.49997043609619 C 24 11.63164043426514 23.58391952514648 12.69554042816162 22.82839965820313 13.4957103729248 C 22.07290077209473 14.29584980010986 21.06839942932129 14.73649978637695 19.99994087219238 14.73649978637695 C 19.94146919250488 14.73649978637695 19.88463973999023 14.73519992828369 19.82621002197266 14.73252964019775 L 19.82621002197266 20.9992504119873 L 13.9094295501709 20.99962043762207 C 13.91178035736084 20.94101905822754 13.9131498336792 20.87923049926758 13.9131498336792 20.81558990478516 C 13.9131498336792 18.47937965393066 12.11888027191162 16.5787296295166 9.913419723510742 16.5787296295166 C 7.707779884338379 16.5787296295166 5.913360118865967 18.47937965393066 5.913360118865967 20.81558990478516 C 5.913360118865967 20.87659072875977 5.914619922637939 20.93849945068359 5.917079925537109 20.99962043762207 L 5.917089939117432 21 Z" stroke="none" fill="#fafafa"/>
    </g>
    <g id="Subtraction_4" data-name="Subtraction 4" transform="translate(39 41.493) rotate(180)" fill="none">
      <path d="M5.917,21H0V0H19.826V6.267c.061,0,.118,0,.174,0A3.865,3.865,0,0,1,22.828,7.5a4.416,4.416,0,0,1,0,5.992A3.865,3.865,0,0,1,20,14.737c-.058,0-.115,0-.174,0V21H13.909c0-.059,0-.12,0-.184a4.128,4.128,0,0,0-4-4.237,4.128,4.128,0,0,0-4,4.237c0,.061,0,.123,0,.184Z" stroke="none"/>
      <path d="M 4.973921298980713 19.99993896484375 C 5.349064826965332 17.49835014343262 7.421247005462646 15.5787296295166 9.913419723510742 15.5787296295166 C 12.4052619934082 15.5787296295166 14.47721385955811 17.49821853637695 14.85253620147705 19.99956130981445 L 18.82621002197266 19.99931335449219 L 18.82621002197266 14.73252964019775 L 18.82621002197266 13.68579006195068 L 19.87186050415039 13.73357009887695 C 19.91497039794922 13.73554039001465 19.95685958862305 13.73649978637695 19.99994087219238 13.73649978637695 C 20.79039001464844 13.73649978637695 21.53667068481445 13.40717029571533 22.10129928588867 12.80918025970459 C 22.68083000183105 12.19538974761963 23 11.37530040740967 23 10.49997043609619 C 23 9.624600410461426 22.68082046508789 8.804439544677734 22.10125923156738 8.190569877624512 C 21.53661918640137 7.592490196228027 20.79035949707031 7.263120174407959 19.99994087219238 7.263120174407959 C 19.95718002319336 7.263120174407959 19.91518020629883 7.264080047607422 19.87153053283691 7.266059875488281 L 18.82621002197266 7.313479900360107 L 18.82621002197266 6.26708984375 L 18.82621002197266 1.000009536743164 L 1 1.000000476837158 L 1 19.99968338012695 L 4.973921298980713 19.99993896484375 M 5.917089939117432 21 L 5.916729927062988 21 L -1.77635683940025e-15 20.99962043762207 L -1.77635683940025e-15 0 L 19.82621002197266 9.999999747378752e-06 L 19.82621002197266 6.26708984375 C 19.88771057128906 6.264299869537354 19.94465065002441 6.263120174407959 19.99994087219238 6.263120174407959 C 21.06838989257813 6.263120174407959 22.07288932800293 6.703829765319824 22.82839965820313 7.504079818725586 C 23.58391952514648 8.304320335388184 24 9.368289947509766 24 10.49997043609619 C 24 11.63164043426514 23.58391952514648 12.69554042816162 22.82839965820313 13.4957103729248 C 22.07290077209473 14.29584980010986 21.06839942932129 14.73649978637695 19.99994087219238 14.73649978637695 C 19.94146919250488 14.73649978637695 19.88463973999023 14.73519992828369 19.82621002197266 14.73252964019775 L 19.82621002197266 20.9992504119873 L 13.9094295501709 20.99962043762207 C 13.91178035736084 20.94101905822754 13.9131498336792 20.87923049926758 13.9131498336792 20.81558990478516 C 13.9131498336792 18.47937965393066 12.11888027191162 16.5787296295166 9.913419723510742 16.5787296295166 C 7.707779884338379 16.5787296295166 5.913360118865967 18.47937965393066 5.913360118865967 20.81558990478516 C 5.913360118865967 20.87659072875977 5.914619922637939 20.93849945068359 5.917079925537109 20.99962043762207 L 5.917089939117432 21 Z" stroke="none" fill="#fafafa"/>
    </g>
    <g id="Subtraction_5" data-name="Subtraction 5" transform="translate(0 41.493) rotate(-90)" fill="none">
      <path d="M5.917,21H0V0H19.826V6.267c.061,0,.118,0,.174,0A3.865,3.865,0,0,1,22.828,7.5a4.416,4.416,0,0,1,0,5.992A3.865,3.865,0,0,1,20,14.737c-.058,0-.115,0-.174,0V21H13.909c0-.059,0-.12,0-.184a4.128,4.128,0,0,0-4-4.237,4.128,4.128,0,0,0-4,4.237c0,.061,0,.123,0,.184Z" stroke="none"/>
      <path d="M 4.973921298980713 19.99993896484375 C 5.349064826965332 17.49835014343262 7.421247005462646 15.5787296295166 9.913419723510742 15.5787296295166 C 12.4052619934082 15.5787296295166 14.47721385955811 17.49821853637695 14.85253620147705 19.99956130981445 L 18.82621002197266 19.99931335449219 L 18.82621002197266 14.73252964019775 L 18.82621002197266 13.68579006195068 L 19.87186050415039 13.73357009887695 C 19.91497039794922 13.73554039001465 19.95685958862305 13.73649978637695 19.99994087219238 13.73649978637695 C 20.79039001464844 13.73649978637695 21.53667068481445 13.40717029571533 22.10129928588867 12.80918025970459 C 22.68083000183105 12.19538974761963 23 11.37530040740967 23 10.49997043609619 C 23 9.624600410461426 22.68082046508789 8.804439544677734 22.10125923156738 8.190569877624512 C 21.53661918640137 7.592490196228027 20.79035949707031 7.263120174407959 19.99994087219238 7.263120174407959 C 19.95718002319336 7.263120174407959 19.91518020629883 7.264080047607422 19.87153053283691 7.266059875488281 L 18.82621002197266 7.313479900360107 L 18.82621002197266 6.26708984375 L 18.82621002197266 1.000009536743164 L 1 1.000000476837158 L 1 19.99968338012695 L 4.973921298980713 19.99993896484375 M 5.917089939117432 21 L 5.916729927062988 21 L -1.77635683940025e-15 20.99962043762207 L -1.77635683940025e-15 0 L 19.82621002197266 9.999999747378752e-06 L 19.82621002197266 6.26708984375 C 19.88771057128906 6.264299869537354 19.94465065002441 6.263120174407959 19.99994087219238 6.263120174407959 C 21.06838989257813 6.263120174407959 22.07288932800293 6.703829765319824 22.82839965820313 7.504079818725586 C 23.58391952514648 8.304320335388184 24 9.368289947509766 24 10.49997043609619 C 24 11.63164043426514 23.58391952514648 12.69554042816162 22.82839965820313 13.4957103729248 C 22.07290077209473 14.29584980010986 21.06839942932129 14.73649978637695 19.99994087219238 14.73649978637695 C 19.94146919250488 14.73649978637695 19.88463973999023 14.73519992828369 19.82621002197266 14.73252964019775 L 19.82621002197266 20.9992504119873 L 13.9094295501709 20.99962043762207 C 13.91178035736084 20.94101905822754 13.9131498336792 20.87923049926758 13.9131498336792 20.81558990478516 C 13.9131498336792 18.47937965393066 12.11888027191162 16.5787296295166 9.913419723510742 16.5787296295166 C 7.707779884338379 16.5787296295166 5.913360118865967 18.47937965393066 5.913360118865967 20.81558990478516 C 5.913360118865967 20.87659072875977 5.914619922637939 20.93849945068359 5.917079925537109 20.99962043762207 L 5.917089939117432 21 Z" stroke="none" fill="#fafafa"/>
    </g>
  </g>
</svg>
