<svg xmlns="http://www.w3.org/2000/svg" xmlns:xlink="http://www.w3.org/1999/xlink" width="155" height="78.211" viewBox="0 0 155 78.211">
  <defs>
    <linearGradient id="linear-gradient" x1="0.5" x2="0.5" y2="1" gradientUnits="objectBoundingBox">
      <stop offset="0" stop-color="#006cbb"/>
      <stop offset="1" stop-color="#fff"/>
    </linearGradient>
  </defs>
  <g id="dummyLogo" transform="translate(-18 -11.789)">
    <path id="Path_1" data-name="Path 1" d="M5.941-7.159S4.456-18.893,12.557-24.075s14.893-2.448,19.849-1.574c8.8,1.551,16.094,7.8,16.094,7.8s2.591-10.533,7-16.054c5.4-6.757,8.457-11.608,17.707-11.608s13.817,5.6,18.526,11.608C96.757-27.5,97.5-17.853,97.5-17.853a102.74,102.74,0,0,1,24.828,3.436" transform="matrix(0.998, 0.07, -0.07, 0.998, 28.661, 77.491)" fill="#003bac"/>
    <path id="Union_3" data-name="Union 3" d="M58.107-59.236s-.692-11.4,7.738-15.818a19.7,19.7,0,0,1,6.175-2.084v-6.6a8.8,8.8,0,0,1-4.869-2.594q-2.666-2.8-2.666-7.861,0-5.235,2.695-8.125a9.126,9.126,0,0,1,6.992-2.891,8.87,8.87,0,0,1,6.8,2.832q2.637,2.831,2.636,7.969c0,.208-.006.521-.019.937H68.117a7.974,7.974,0,0,0,1.933,5.234,5.755,5.755,0,0,0,4.336,1.817,5.378,5.378,0,0,0,3.3-1.016,6.75,6.75,0,0,0,2.168-3.242l3.632.449a8.867,8.867,0,0,1-3.183,4.941,8.8,8.8,0,0,1-4.286,1.658v6.314c3.786.226,7.021,1.475,9.733,2.134A36.191,36.191,0,0,1,98.02-69.2V-90.933a8.368,8.368,0,0,1-3.849-2.381q-2.588-2.782-2.588-7.979a14.433,14.433,0,0,1,1.113-5.879,7.765,7.765,0,0,1,3.388-3.779,10.057,10.057,0,0,1,4.952-1.26,8.606,8.606,0,0,1,5.527,1.709,7.842,7.842,0,0,1,2.754,4.854l-3.418.527a5.68,5.68,0,0,0-1.728-3.145,4.475,4.475,0,0,0-3-1.055,5.457,5.457,0,0,0-4.316,1.9q-1.659,1.9-1.66,6.025,0,4.18,1.6,6.074a5.214,5.214,0,0,0,4.18,1.895,4.926,4.926,0,0,0,3.458-1.27,6.3,6.3,0,0,0,1.758-3.906l3.457.449a8.969,8.969,0,0,1-2.9,5.6,8.216,8.216,0,0,1-4.729,1.975v21.995c1.227-3.175,3.894-9.338,7.325-12.939,3.719-3.9,6.441-7.126,10.312-8.786v-27.435h3.2v2.7a7.887,7.887,0,0,1,2.559-2.373,7.028,7.028,0,0,1,3.457-.79,8.2,8.2,0,0,1,4.687,1.367,8.384,8.384,0,0,1,3.066,3.857,14.076,14.076,0,0,1,1.035,5.458,13.874,13.874,0,0,1-1.142,5.733,8.619,8.619,0,0,1-3.32,3.906,8.532,8.532,0,0,1-4.58,1.357,6.614,6.614,0,0,1-3.155-.743,7.165,7.165,0,0,1-2.295-1.875v7.843a20.573,20.573,0,0,1,4.618-.151c9.227.645,13.406,6.354,17.7,12.464,4.581,6.517,4.673,15.852,4.673,15.852s8.724-4.677,14.857-3.418,4.649,6.688,9.68,8.457ZM70.139-100.7a6.418,6.418,0,0,0-1.826,4.336H79.895a7.029,7.029,0,0,0-1.328-3.926,5.386,5.386,0,0,0-4.355-2.031A5.585,5.585,0,0,0,70.139-100.7Zm54.322-.636a4.973,4.973,0,0,0,3.926,1.913A5.084,5.084,0,0,0,132.4-101.4q1.67-1.983,1.669-6.143,0-3.964-1.631-5.937a4.91,4.91,0,0,0-3.9-1.973,5.062,5.062,0,0,0-3.974,2.1A8.127,8.127,0,0,0,122.932-109h.088v4.183A7.038,7.038,0,0,0,124.461-101.336Z" transform="translate(-14.02 130)" fill="url(#linear-gradient)"/>
    <text id="Tata_Consultancy_Services" data-name="Tata Consultancy Services" transform="translate(18 87)" fill="#fafafa" font-size="13" font-family="Arial-BoldMT, Arial" font-weight="700"><tspan x="0" y="0">Tata </tspan><tspan y="0" font-family="ArialMT, Arial" font-weight="400">Consultancy Services</tspan></text>
  </g>
</svg>
