<svg id="learn" xmlns="http://www.w3.org/2000/svg" width="40.33" height="30.307" viewBox="0 0 40.33 30.307">
  <g id="Path_10" data-name="Path 10" transform="translate(4.112 2.667)" fill="none">
    <path d="M0-2.43a53.552,53.552,0,0,1,9.87,0A39.894,39.894,0,0,1,18.643-.3V25.447a69.087,69.087,0,0,0-10.418-2.6,28.614,28.614,0,0,0-8.225,0Z" stroke="none"/>
    <path d="M 5.23957347869873 -0.6666412353515625 C 4.003511428833008 -0.6666412353515625 2.874497413635254 -0.6223335266113281 2.000003814697266 -0.5729560852050781 L 2.000003814697266 20.62322998046875 C 2.587223052978516 20.58586311340332 3.267230033874512 20.55973815917969 4.021062850952148 20.55973815917969 C 5.52806282043457 20.55973815917969 7.035343170166016 20.66332817077637 8.501023292541504 20.86763763427734 C 11.32336139678955 21.26106643676758 14.4774112701416 22.0939826965332 16.64306259155273 22.72903442382813 L 16.64306259155273 1.118312835693359 C 15.14261627197266 0.6336097717285156 12.49382972717285 -0.1181659698486328 9.643242835998535 -0.4432716369628906 C 8.343683242797852 -0.59149169921875 6.862072944641113 -0.6666412353515625 5.23957347869873 -0.6666412353515625 M 5.239568710327148 -2.666645050048828 C 6.701913833618164 -2.666645050048828 8.316097259521484 -2.607603073120117 9.869873046875 -2.430391311645508 C 14.53064346313477 -1.898832321166992 18.64306259155273 -0.3041305541992188 18.64306259155273 -0.3041305541992188 L 18.64306259155273 25.44727897644043 C 18.64306259155273 25.44727897644043 12.88566303253174 23.49818801879883 8.224893569946289 22.84848785400391 C 6.671401023864746 22.63193893432617 5.239519119262695 22.55973815917969 4.021065711975098 22.55973815917969 C 1.583934783935547 22.55973815917969 3.814697265625e-06 22.84848785400391 3.814697265625e-06 22.84848785400391 L 3.814697265625e-06 -2.430391311645508 C 3.814697265625e-06 -2.430391311645508 2.31541633605957 -2.666645050048828 5.239568710327148 -2.666645050048828 Z" stroke="none" fill="#fafafa"/>
  </g>
  <g id="Path_12" data-name="Path 12" transform="translate(0 2.667)" fill="none">
    <path d="M0-2.428a2.7,2.7,0,0,1,2.177,0c1.028.537,0,27.2,0,27.2s6.455-1.014,11.531,0a38.525,38.525,0,0,1,8.773,2.864L0,26.447Z" stroke="none"/>
    <path d="M 1.155786514282227 -2.666645050048828 C 1.478363037109375 -2.666645050048828 1.834434509277344 -2.607006072998047 2.177179336547852 -2.428001403808594 C 3.205299377441406 -1.891071319580078 2.177179336547852 24.77691841125488 2.177179336547852 24.77691841125488 C 2.177179336547852 24.77691841125488 5.046295166015625 24.32621002197266 8.462596893310547 24.3261547088623 C 10.17106151580811 24.32612609863281 12.01590251922607 24.43880462646484 13.70812892913818 24.77691841125488 C 18.78418922424316 25.7911491394043 22.48141860961914 27.64059829711914 22.48141860961914 27.64059829711914 L 0 26.4473876953125 L 0 -2.428001403808594 C 0 -2.428001403808594 0.5107536315917969 -2.666645050048828 1.155786514282227 -2.666645050048828 Z" stroke="none" fill="#fafafa"/>
  </g>
  <g id="Path_13" data-name="Path 13" transform="translate(17.849 2.667)" fill="none">
    <path d="M22.481-2.428a2.7,2.7,0,0,0-2.177,0c-1.028.537,0,27.2,0,27.2s-6.455-1.014-11.531,0A38.525,38.525,0,0,0,0,27.641l22.481-1.193Z" stroke="none"/>
    <path d="M 21.32563018798828 -2.666652679443359 C 21.97066497802734 -2.666622161865234 22.48141860961914 -2.428010940551758 22.48141860961914 -2.428010940551758 L 22.48141860961914 26.44736862182617 L 0 27.64057731628418 C 0 27.64057731628418 3.697229385375977 25.79112815856934 8.773289680480957 24.77690887451172 C 10.46551609039307 24.43879318237305 12.31035709381104 24.32614326477051 14.01882171630859 24.32614326477051 C 17.43512344360352 24.32614326477051 20.30423927307129 24.77690887451172 20.30423927307129 24.77690887451172 C 20.30423927307129 24.77690887451172 19.27611923217773 -1.891071319580078 20.30423927307129 -2.428010940551758 C 20.6469841003418 -2.607013702392578 21.00305557250977 -2.666666030883789 21.32563018798828 -2.666652679443359 Z" stroke="none" fill="#fafafa"/>
  </g>
  <g id="Path_11" data-name="Path 11" transform="translate(17.849 2.667)" fill="none">
    <path d="M18.643-2.43a53.552,53.552,0,0,0-9.87,0A39.894,39.894,0,0,0,0-.3V25.447a69.087,69.087,0,0,1,10.418-2.6,28.614,28.614,0,0,1,8.225,0Z" stroke="none"/>
    <path d="M 13.40312385559082 -0.6666507720947266 C 11.78087329864502 -0.6666507720947266 10.29938316345215 -0.5914993286132813 8.999823570251465 -0.4432792663574219 C 6.161176681518555 -0.1195259094238281 3.504593849182129 0.6342620849609375 2.000003814697266 1.119483947753906 L 2.000003814697266 22.7290153503418 C 4.165656089782715 22.09396743774414 7.319708824157715 21.26105117797852 10.14205360412598 20.86763000488281 C 11.60764312744141 20.66333961486816 13.11490249633789 20.55974006652832 14.62198257446289 20.55973052978516 C 15.37582492828369 20.55972480773926 16.05583763122559 20.58585548400879 16.64306259155273 20.62322425842285 L 16.64306259155273 -0.5729484558105469 C 15.76853275299072 -0.6223220825195313 14.63926887512207 -0.6666374206542969 13.40328311920166 -0.6666507720947266 L 13.40312385559082 -0.6666507720947266 M 13.40349769592285 -2.666648864746094 C 16.32765007019043 -2.666620254516602 18.64306259155273 -2.430400848388672 18.64306259155273 -2.430400848388672 L 18.64306259155273 22.84848022460938 C 18.64306259155273 22.84848022460938 17.05913162231445 22.55971145629883 14.62200164794922 22.55972862243652 C 13.4035472869873 22.55973815917969 11.97166442871094 22.63192939758301 10.41817283630371 22.84848022460938 C 5.757403373718262 23.49817085266113 3.814697265625e-06 25.4472599029541 3.814697265625e-06 25.4472599029541 L 3.814697265625e-06 -0.3041305541992188 C 3.814697265625e-06 -0.3041305541992188 4.112422943115234 -1.898830413818359 8.773193359375 -2.430400848388672 C 10.32696914672852 -2.607608795166016 11.94115257263184 -2.666664123535156 13.40349769592285 -2.666648864746094 Z" stroke="none" fill="#fafafa"/>
  </g>
</svg>
