<svg xmlns="http://www.w3.org/2000/svg" width="98" height="83.3" viewBox="0 0 98 83.3">
  <g id="platform" transform="translate(-2 -6)">
    <path id="Path_17" data-name="Path 17" d="M80.519,17.433a18.756,18.756,0,0,0-33.3-2.412A18.615,18.615,0,0,0,35.483,10.9,18.8,18.8,0,0,0,16.7,29.683v4.083H13.433A11.426,11.426,0,0,0,11.8,56.5V84.4a4.906,4.906,0,0,0,4.9,4.9H90.2V86.033H82.033V56.55a19.592,19.592,0,0,0-1.514-39.117Zm-50.753,68.6H23.233V74.6h6.533Zm16.333,0H39.567v-19.6H46.1Zm16.333,0H55.9V58.267h6.533Zm9.8,0V48.467h6.533V86.033Zm9.8-32.75v-6.45A1.634,1.634,0,0,0,80.4,45.2H70.6a1.634,1.634,0,0,0-1.633,1.633v39.2H65.7v-29.4A1.634,1.634,0,0,0,64.067,55h-9.8a1.634,1.634,0,0,0-1.633,1.633v29.4H49.367V64.8a1.634,1.634,0,0,0-1.633-1.633h-9.8A1.634,1.634,0,0,0,36.3,64.8V86.033H33.033V72.967A1.634,1.634,0,0,0,31.4,71.333H21.6a1.634,1.634,0,0,0-1.633,1.633V86.033H16.7A1.636,1.636,0,0,1,15.067,84.4V56.633h8.167V53.367h-9.8a8.167,8.167,0,1,1,0-16.333h4.9A1.634,1.634,0,0,0,19.967,35.4V29.683a15.512,15.512,0,0,1,26.55-10.9,1.632,1.632,0,0,0,2.644-.465,15.494,15.494,0,0,1,28.7,1.3A1.633,1.633,0,0,0,79.4,20.7h1a16.333,16.333,0,0,1,1.633,32.583Z" transform="translate(0)" fill="#fafafa"/>
    <path id="Path_18" data-name="Path 18" d="M50,18v3.267A6.54,6.54,0,0,1,56.533,27.8H59.8A9.81,9.81,0,0,0,50,18Z" transform="translate(30.4 7.6)" fill="#fafafa"/>
    <path id="Path_19" data-name="Path 19" d="M54,26h3.267v3.267H54Z" transform="translate(32.933 12.667)" fill="#fafafa"/>
    <path id="Path_20" data-name="Path 20" d="M61.051,15.237a1.634,1.634,0,0,0-2.535-.933L47.083,22.471a1.634,1.634,0,0,0,.951,2.963h1.932a25.172,25.172,0,0,1-21.88,10.388l-9.351-.585a1.59,1.59,0,0,0-1.22.439A1.635,1.635,0,0,0,17,36.867V49.934a1.633,1.633,0,0,0,1.633,1.633c.026,0,.052,0,.077,0l13.815-.658a28.3,28.3,0,0,0,26.3-22.318l.1-.464,2.9,1.934A1.634,1.634,0,0,0,64.319,28.3ZM58.74,24.075a1.635,1.635,0,0,0-2.5,1.018l-.6,2.814A25.029,25.029,0,0,1,32.371,47.645l-12.1.575V38.6l7.615.477a28.382,28.382,0,0,0,26.48-14.488,1.632,1.632,0,0,0-1.245-2.416l5.348-3.82L60.123,25Z" transform="translate(9.5 5.066)" fill="#fafafa"/>
  </g>
</svg>
