<svg xmlns="http://www.w3.org/2000/svg" width="96.046" height="96.025" viewBox="0 0 96.046 96.025">
  <g id="Service" transform="translate(-1.987 -2)">
    <path id="Path_24" data-name="Path 24" d="M83.629,50.012a14.4,14.4,0,1,0,0-28.807h-3.3A14.367,14.367,0,0,0,57.638,11.122,23.977,23.977,0,0,0,15.307,21.269a14.393,14.393,0,0,0,1.1,28.743H43.619v6.4h-8a8,8,0,0,0-8,8V85.222a4.816,4.816,0,0,1-4.8,4.8H14.587a6.4,6.4,0,1,0,0,3.2h8.226a8,8,0,0,0,8-8V64.416a4.816,4.816,0,0,1,4.8-4.8h8v9.6c0,2.129,1.936,3.681,4.8,4.737V94.824h-4.8v3.2h6.4a1.6,1.6,0,0,0,1.6-1.6V74.851a38.752,38.752,0,0,0,6.4.736V91.623a1.6,1.6,0,0,0,1.6,1.6H74.251a6.4,6.4,0,1,0,0-3.2H61.223V75.587c7.218-.256,14.4-2.273,14.4-6.37v-3.2h4.8a1.6,1.6,0,0,1,1.6,1.6v12.8a1.6,1.6,0,0,0,1.6,1.6h8v-3.2h-6.4v-11.2a4.816,4.816,0,0,0-4.8-4.8h-4.8v-12.8ZM8.409,94.824a3.2,3.2,0,1,1,3.2-3.2A3.2,3.2,0,0,1,8.409,94.824Zm72.019-6.4a3.2,3.2,0,1,1-3.2,3.2,3.2,3.2,0,0,1,3.2-3.2Zm-8-19.2c0,.816-4.4,3.2-12.8,3.2s-12.8-2.385-12.8-3.2V63.648a30.193,30.193,0,0,0,12.8,2.369,30.193,30.193,0,0,0,12.8-2.369Zm0-9.6c0,.816-4.4,3.2-12.8,3.2s-12.8-2.385-12.8-3.2V54.045a30.194,30.194,0,0,0,12.8,2.369,30.193,30.193,0,0,0,12.8-2.369Zm0-9.6c0,.816-4.4,3.2-12.8,3.2s-12.8-2.385-12.8-3.2V44.443a30.193,30.193,0,0,0,12.8,2.369,30.193,30.193,0,0,0,12.8-2.369Zm-12.8-6.4c-8.4,0-12.8-2.385-12.8-3.2s4.4-3.2,12.8-3.2,12.8,2.385,12.8,3.2S68.025,43.611,59.623,43.611Zm1.6-9.57V30.807a4.816,4.816,0,0,0-4.8-4.8H48.2a6.4,6.4,0,1,0,0,3.2h8.226a1.6,1.6,0,0,1,1.6,1.6V34.04c-7.218.256-14.4,2.273-14.4,6.37v6.4H16.412a11.2,11.2,0,0,1,0-22.406H16.6a11.27,11.27,0,0,1,11.011,11.2h3.2A14.482,14.482,0,0,0,18.54,21.381a20.805,20.805,0,0,1,40.6.176l3.121-.7a23.846,23.846,0,0,0-2.833-7.09A11.2,11.2,0,0,1,74.779,29.815l2.5,2a14.553,14.553,0,0,0,3.057-7.41h3.3a11.2,11.2,0,0,1,0,22.406h-8v-3.2h4.8a1.6,1.6,0,0,0,1.6-1.6v-6.4h1.6v-3.2h-3.2a1.6,1.6,0,0,0-1.6,1.6v6.4h-3.2c0-4.1-7.186-6.114-14.4-6.37Zm-16-6.434a3.2,3.2,0,1,1-3.2-3.2A3.2,3.2,0,0,1,45.219,27.607Z" transform="translate(0 0)" fill="#fafafa"/>
    <path id="Path_25" data-name="Path 25" d="M60,50h3.2v3.2H60Z" transform="translate(34.832 28.82)" fill="#fafafa"/>
    <path id="Path_26" data-name="Path 26" d="M24,60h3.2v3.2H24Z" transform="translate(13.217 34.824)" fill="#fafafa"/>
    <path id="Path_27" data-name="Path 27" d="M9.2,26A4.8,4.8,0,0,1,14,21.2V18a8,8,0,1,0,0,16h12.8V30.8H14A4.8,4.8,0,0,1,9.2,26Z" transform="translate(2.409 9.607)" fill="#fafafa"/>
    <path id="Path_28" data-name="Path 28" d="M55,21h3.2v3.2H55Z" transform="translate(31.83 11.408)" fill="#fafafa"/>
  </g>
</svg>
