<svg xmlns="http://www.w3.org/2000/svg" width="33.584" height="47.078" viewBox="0 0 33.584 47.078">
  <g id="solutionInactive" transform="translate(0 -4.922)">
    <path id="Path_101" data-name="Path 101" d="M32.161,18.742A3.358,3.358,0,0,0,28.806,22.1H25.452V17.9H23.774a1.677,1.677,0,1,1,0-3.355h1.677V7H23.2a16.2,16.2,0,0,0-10.26,28.743l3.283,2.686V40.7a2.5,2.5,0,0,0,.185,4.781A2.492,2.492,0,0,0,17.949,48.8a5.867,5.867,0,0,0,11.651,0,2.493,2.493,0,0,0,1.538-3.312,2.5,2.5,0,0,0,.185-4.781V38.429l3.283-2.686A16.14,16.14,0,0,0,40.548,23.2V22.1H35.516A3.358,3.358,0,0,0,32.161,18.742ZM23.2,8.677h.571v4.194a3.355,3.355,0,1,0,0,6.71V22.1H20.419a3.355,3.355,0,0,0-6.71,0H8.719A14.545,14.545,0,0,1,23.2,8.677ZM14,34.445A14.463,14.463,0,0,1,8.689,23.774h6.7V22.1a1.677,1.677,0,1,1,3.355,0v1.677h5.032v3.355a3.355,3.355,0,1,0,0,6.71v6.71H17.9V37.635ZM23.774,52.29a4.2,4.2,0,0,1-4.109-3.355h8.218A4.2,4.2,0,0,1,23.774,52.29Zm5.032-5.032H18.742a.839.839,0,0,1,0-1.677H28.806a.839.839,0,1,1,0,1.677ZM30.484,43.9H17.065a.839.839,0,0,1,0-1.677H30.484a.839.839,0,1,1,0,1.677Zm3.06-9.458-3.9,3.19v2.914H25.452V32.161H23.774a1.677,1.677,0,0,1,0-3.355h1.677V23.774h5.032V22.1a1.677,1.677,0,1,1,3.355,0v1.677h5.021A14.463,14.463,0,0,1,33.543,34.445Z" transform="translate(-7 -1.968)" fill="#fafafa"/>
    <path id="Path_266" data-name="Path 266" d="M-.133.431a16.851,16.851,0,0,1,6.868.613A16.614,16.614,0,0,1,12.5,4.518a13.721,13.721,0,0,1,3.912,6.232,21.914,21.914,0,0,1,.824,4.8" transform="translate(15.5 5.5)" fill="none" stroke="#fafafa" stroke-width="1.7"/>
  </g>
</svg>
