<svg xmlns="http://www.w3.org/2000/svg" width="96" height="96" viewBox="0 0 96 96">
  <g id="solutionM" transform="translate(0.001 0)">
    <path id="Path_21" data-name="Path 21" d="M48,360.907a8.9,8.9,0,1,0,8.9-8.9A8.912,8.912,0,0,0,48,360.907Zm8.9-5.935a5.935,5.935,0,1,1-5.935,5.935A5.941,5.941,0,0,1,56.9,354.972Zm0,0" transform="translate(-39.097 -282.713)" fill="#fafafa"/>
    <path id="Path_22" data-name="Path 22" d="M89.806,77.42H74.322a3.1,3.1,0,0,1-3.1-3.1V71.131A13.921,13.921,0,0,0,82.83,61.859,4.612,4.612,0,0,0,85.5,54.195a4.58,4.58,0,0,0-.4-6.585A26.4,26.4,0,0,0,96,26.324a26.253,26.253,0,0,0-46.573-16.7,10.962,10.962,0,0,0-8.9-1.508,13.925,13.925,0,0,0-26.49,7.492,9.284,9.284,0,0,0,1.443,18.457H44.52a26.206,26.206,0,0,0,9.733,13.545,4.578,4.578,0,0,0-.4,6.584,4.611,4.611,0,0,0,2.671,7.664,13.921,13.921,0,0,0,11.6,9.272v3.193a6.2,6.2,0,0,0,6.194,6.194H89.805a3.1,3.1,0,0,1,0,6.194H49.547a3.1,3.1,0,0,1-3.1-3.1V55.743a6.2,6.2,0,0,0-6.194-6.194H23.225a6.2,6.2,0,0,0-6.194,6.194v3.1H14.3L13.188,62.9c-.355.133-.709.282-1.061.443L8.466,61.255,2.415,67.306l2.092,3.662q-.242.527-.443,1.061L0,73.14V81.7L4.064,82.81c.134.355.282.709.443,1.061L2.415,87.532l6.051,6.051,3.662-2.092c.352.161.7.31,1.061.443L14.3,96h8.558l1.112-4.065c.354-.133.708-.282,1.06-.443l3.662,2.092,6.051-6.051-2.091-3.662q.242-.527.442-1.061L37.16,81.7V73.142L33.1,72.03c-.133-.355-.281-.709-.442-1.061l2.092-3.662-6.051-6.051-3.662,2.092c-.351-.161-.7-.31-1.06-.443L22.86,58.84H20.128v-3.1a3.1,3.1,0,0,1,3.1-3.1H40.257a3.1,3.1,0,0,1,3.1,3.1V83.614a6.2,6.2,0,0,0,6.194,6.194H89.805a6.194,6.194,0,0,0,0-12.387ZM55.741,51.1a1.549,1.549,0,0,1,1.548-1.548H82.064a1.548,1.548,0,0,1,0,3.1H57.29A1.549,1.549,0,0,1,55.741,51.1ZM66.376,18.582l3.3-4.951,3.3,4.951Zm-1.344,3.1h3.1v6.194h3.1V21.679h3.1V46.453h-3.1V30.969h-3.1V46.453h-3.1Zm-49.548,9.29a6.194,6.194,0,1,1,6.194-6.194h3.1a9.3,9.3,0,0,0-7.591-9.128,10.828,10.828,0,0,1,20.98-5.093l.533,1.618,1.56-.683a7.837,7.837,0,0,1,7.347.64,25.9,25.9,0,0,0-4.211,12.763,26.488,26.488,0,0,0,.387,6.078h-28.3Zm31-5.913A23.4,23.4,0,0,1,68.562,3.124a23.229,23.229,0,0,1,24.34,23.2A23.309,23.309,0,0,1,81.288,46.417l-.062.036H77.418V19.66L69.677,8.048,61.935,19.66V46.452H58.127l-.062-.036a23.169,23.169,0,0,1-11.58-21.361Zm10.8,30.687H82.064a1.548,1.548,0,0,1,0,3.1H57.29a1.548,1.548,0,1,1,0-3.1Zm2.625,6.194H79.439a10.791,10.791,0,0,1-19.525,0Zm-38.49,3.4.811.249a12.369,12.369,0,0,1,2.121.885l.751.4,3.066-1.75,2.707,2.707-1.75,3.066.4.752a12.159,12.159,0,0,1,.885,2.121l.25.812,3.4.933v3.829l-3.4.931-.249.811a12.284,12.284,0,0,1-.885,2.121l-.4.751,1.749,3.066-2.707,2.707-3.066-1.749-.751.4a12.2,12.2,0,0,1-2.121.886l-.811.25-.934,3.4H16.665l-.931-3.4-.811-.249a12.314,12.314,0,0,1-2.121-.886l-.751-.4L8.985,89.724,6.278,87.017l1.749-3.066-.4-.751a12.23,12.23,0,0,1-.886-2.121l-.249-.811-3.4-.934V75.5l3.4-.93.249-.812a12.282,12.282,0,0,1,.886-2.121l.4-.752L6.277,67.825l2.707-2.707,3.066,1.75.751-.4a12.25,12.25,0,0,1,2.121-.885l.811-.249.934-3.4H20.5Zm0,0" transform="translate(0 0)" fill="#fafafa"/>
    <path id="Path_23" data-name="Path 23" d="M424.325,89.742a19.314,19.314,0,0,0,0-27.281l-2.1,2.1a16.342,16.342,0,0,1,0,23.085Zm0,0" transform="translate(-339.911 -50.875)" fill="#fafafa"/>
  </g>
</svg>
